# xmcd
#
# Track frame offsets: 
#        225
#        19023
#        36084
#        52884
#        64241
#        66092
#        82357
#        86350
#        109208
#        123727
#        145839
#        166871
#        175098
#
# Disc length: 2614 seconds
#
# Revision: 0
# Processed by: cddbd v1.5.2PL0 Copyright (c) Steve Scherf et al.
# Submitted via: ExactAudioCopy v0.99pb5
#
DISCID=b00a330d
DTITLE=Sunparlour Players - Wave North
DYEAR=2009
DGENRE=Alternative Country
TTITLE0=North
TTITLE1=Make a Sound
TTITLE2=Battle of 77
TTITLE3=Joy in What You Lack
TTITLE4=Mersea Community Horn Club
TTITLE5=Nuclear
TTITLE6=Boards
TTITLE7=Point Pelee is the Place to Be!
TTITLE8=Wood Dress
TTITLE9=Wall Sisters
TTITLE10=Figure it Out
TTITLE11=O'Captain
TTITLE12=Build it Up
EXTD=
EXTT0=
EXTT1=
EXTT2=
EXTT3=
EXTT4=
EXTT5=
EXTT6=
EXTT7=
EXTT8=
EXTT9=
EXTT10=
EXTT11=
EXTT12=
PLAYORDER=
